HIERARCHY
ROOT Pelvis
{
	OFFSET 0.000000 0.000000 0.000000
	CHANNELS 6 Xposition Yposition Zposition Xrotation Yrotation Zrotation
	JOINT LeftUpLeg_virtual
	{
		OFFSET 0.000000 0.000000 0.000000
		CHANNELS 3 Xrotation Yrotation Zrotation
		JOINT LeftUpLeg
		{
			OFFSET 18.735201 -5.666702 -4.541200
			CHANNELS 3 Xrotation Yrotation Zrotation
			JOINT LeftLeg
			{
				OFFSET -0.021200 -31.938179 0.493100
				CHANNELS 3 Xrotation Yrotation Zrotation
				JOINT LeftFoot
				{
					OFFSET 0.021200 -31.938179 -4.336299
					CHANNELS 3 Xrotation Yrotation Zrotation
					JOINT LeftToeBase
					{
						OFFSET 0.943001 -26.722000 15.023500
						CHANNELS 3 Xrotation Yrotation Zrotation
						End Site
						{
							OFFSET 0 0 0
						}
					}
				}
			}
		}
	}
	JOINT RightUpLeg_virtual
	{
		OFFSET 0.000000 0.000000 0.000000
		CHANNELS 3 Xrotation Yrotation Zrotation
		JOINT RightUpLeg
		{
			OFFSET -18.735201 -5.666702 -4.541200
			CHANNELS 3 Xrotation Yrotation Zrotation
			JOINT RightLeg
			{
				OFFSET 0.018946 -31.938133 0.493100
				CHANNELS 3 Xrotation Yrotation Zrotation
				JOINT RightFoot
				{
					OFFSET -0.018946 -31.938126 -4.336299
					CHANNELS 3 Xrotation Yrotation Zrotation
					JOINT RightToeBase
					{
						OFFSET -0.943001 -26.722004 15.023500
						CHANNELS 3 Xrotation Yrotation Zrotation
						End Site
						{
							OFFSET 0 0 0
						}
					}
				}
			}
		}
	}
	JOINT Hips_virtual
	{
		OFFSET 0.000000 0.000000 0.000000
		CHANNELS 3 Xrotation Yrotation Zrotation
		JOINT Hips
		{
			OFFSET -0.000000 -0.000000 -0.000000
			CHANNELS 3 Xrotation Yrotation Zrotation
			JOINT Spine
			{
				OFFSET 0.000000 10.199997 -0.299500
				CHANNELS 3 Xrotation Yrotation Zrotation
				JOINT Spine1
				{
					OFFSET 0.000000 11.900002 -1.516600
					CHANNELS 3 Xrotation Yrotation Zrotation
					JOINT Spine2
					{
						OFFSET 0.000000 13.600006 -2.842500
						CHANNELS 3 Xrotation Yrotation Zrotation
						JOINT Neck_virtual
						{
							OFFSET 0.000000 0.000000 0.000000
							CHANNELS 3 Xrotation Yrotation Zrotation
							JOINT Neck
							{
								OFFSET 0.000000 9.624100 -2.890100
								CHANNELS 3 Xrotation Yrotation Zrotation
								JOINT Head
								{
									OFFSET 0.000000 14.068802 -1.351900
									CHANNELS 3 Xrotation Yrotation Zrotation
									End Site
									{
										OFFSET 0 0 0
									}
								}
							}
						}
						JOINT LeftShoulder_virtual
						{
							OFFSET 0.000000 0.000000 0.000000
							CHANNELS 3 Xrotation Yrotation Zrotation
							JOINT LeftShoulder
							{
								OFFSET 15.263000 10.923401 -0.547700
								CHANNELS 3 Xrotation Yrotation Zrotation
								JOINT LeftArm
								{
									OFFSET 25.438599 -2.830597 -13.032500
									CHANNELS 3 Xrotation Yrotation Zrotation
									JOINT LeftForeArm
									{
										OFFSET 29.960503 0.000000 0.000000
										CHANNELS 3 Xrotation Yrotation Zrotation
										JOINT LeftHand
										{
											OFFSET 27.849251 0.000000 0.000000
											CHANNELS 3 Xrotation Yrotation Zrotation
											End Site
											{
												OFFSET 0 0 0
											}
										}
									}
								}
							}
						}
						JOINT RightShoulder_virtual
						{
							OFFSET 0.000000 0.000000 0.000000
							CHANNELS 3 Xrotation Yrotation Zrotation
							JOINT RightShoulder
							{
								OFFSET -15.263000 10.923401 -0.547700
								CHANNELS 3 Xrotation Yrotation Zrotation
								JOINT RightArm
								{
									OFFSET -25.438599 -2.830597 -13.032500
									CHANNELS 3 Xrotation Yrotation Zrotation
									JOINT RightForeArm
									{
										OFFSET -29.960503 0.000000 0.000000
										CHANNELS 3 Xrotation Yrotation Zrotation
										JOINT RightHand
										{
											OFFSET -27.849251 0.000000 0.000000
											CHANNELS 3 Xrotation Yrotation Zrotation
											End Site
											{
												OFFSET 0 0 0
											}
										}
									}
								}
							}
						}
					}
				}
			}
		}
	}
}
MOTION
Frames: 7
Frame Time: 0.03333333
-8.040804 88.893066 21.157896 0.000000 0.000000 0.000000 179.673959 -39.974532 -177.220979 -3.826836 22.186124 13.601450 25.262727 -5.851124 16.041473 -12.787667 5.790273 -33.791179 0.000000 0.000000 0.000000 -179.826190 -40.883026 -176.542058 -29.444833 -14.490607 -19.349390 26.134993 -6.830780 -0.382980 15.579981 1.966700 -4.581731 0.000000 0.000000 0.000000 179.384468 -42.406527 -177.304348 -0.764923 0.132546 -0.006639 12.005083 1.937536 0.411181 -0.690854 -2.808055 5.229157 0.000000 0.000000 0.000000 -2.513662 1.244099 2.351871 2.017147 1.296592 -0.681380 0.000000 0.000000 0.000000 -2.887703 0.820857 3.427794 -1.171047 -3.512911 -9.486374 8.865563 -11.963088 -60.485048 -7.293625 -23.432036 -16.406319 0.000000 0.000000 0.000000 -2.422829 2.194780 2.745105 2.030344 3.376330 12.859099 29.838180 16.137756 43.388114 18.985020 41.767560 -5.298087 0.000000 0.000000 0.000000 
-7.904378 88.108566 19.372614 0.000000 0.000000 0.000000 179.641516 -33.792962 -176.819459 -0.890559 23.682515 12.996387 24.770036 -5.433653 17.077440 -10.220887 6.932413 -33.092150 0.000000 0.000000 0.000000 -179.943369 -34.764795 -176.188035 -32.636748 -14.930175 -19.914605 29.107374 -4.529033 1.024661 18.144271 3.289268 -5.238760 0.000000 0.000000 0.000000 179.329649 -36.490856 -176.802138 -0.801286 0.123487 -0.015275 11.813667 1.603860 1.391367 -0.234477 -3.468450 5.308603 0.000000 0.000000 0.000000 -2.386751 0.736679 2.651991 1.847122 0.734535 -0.631820 0.000000 0.000000 0.000000 -2.778501 0.231694 3.540872 -1.253944 -3.330544 -10.325701 9.454371 -11.254267 -61.092374 -7.086089 -23.408284 -16.210216 0.000000 0.000000 0.000000 -2.184124 1.658611 2.840591 1.878367 3.884246 12.416152 29.802362 16.888787 43.319160 19.763769 42.002197 -6.180102 0.000000 0.000000 0.000000 
-7.865409 87.295364 17.457209 0.000000 0.000000 0.000000 179.697059 -27.532581 -176.300897 1.154512 24.769898 12.956404 25.899353 -5.198008 18.099656 -7.779185 7.569956 -32.095646 0.000000 0.000000 0.000000 -179.971564 -28.395950 -175.788674 -34.885898 -15.215986 -19.824436 31.828149 -2.455173 2.278393 17.769712 4.475891 -5.955151 0.000000 0.000000 0.000000 179.362789 -30.305433 -176.263181 -0.818727 0.115642 -0.023468 11.762757 1.181329 2.374891 0.175917 -4.115139 5.269276 0.000000 0.000000 0.000000 -2.231606 0.217895 2.879582 1.683288 0.111537 -0.536589 0.000000 0.000000 0.000000 -2.651779 -0.374036 3.580980 -1.337056 -3.242349 -11.098269 10.476532 -10.545814 -61.487385 -6.722382 -23.805475 -16.203750 0.000000 0.000000 0.000000 -2.050263 1.107076 2.904704 1.742119 4.521368 12.187754 29.464787 18.058216 43.337858 20.462852 42.089736 -7.017547 0.000000 0.000000 0.000000 
-8.016932 86.662064 15.158875 0.000000 0.000000 0.000000 179.760265 -21.248186 -175.715933 2.319828 25.608258 13.414541 28.280950 -5.259565 19.009144 -6.264733 7.708605 -30.651191 0.000000 0.000000 0.000000 -179.945896 -21.980985 -175.333524 -35.996774 -15.565702 -19.264617 34.311097 -0.855891 3.310556 14.334019 5.340905 -6.605853 0.000000 0.000000 0.000000 179.421857 -23.861476 -175.740890 -0.816699 0.107622 -0.034753 11.909758 0.770153 3.231735 0.520066 -4.679619 5.019542 0.000000 0.000000 0.000000 -2.075470 -0.230473 2.924761 1.516138 -0.553805 -0.384855 0.000000 0.000000 0.000000 -2.523269 -0.915891 3.468063 -1.434746 -3.238057 -11.589759 11.835283 -9.627094 -61.679586 -6.264300 -24.776149 -16.404190 0.000000 0.000000 0.000000 -2.032119 0.608986 2.831253 1.606528 5.152759 12.346641 29.032371 19.190532 43.253744 21.100372 42.406428 -7.808526 0.000000 0.000000 0.000000 
-8.323494 86.406670 12.433289 0.000000 0.000000 0.000000 179.782518 -14.997653 -175.213122 2.719061 26.286268 14.067294 31.213281 -5.305925 19.685249 -6.080336 7.573831 -28.199549 0.000000 0.000000 0.000000 -179.932140 -15.560499 -174.927101 -35.967390 -15.518458 -17.974705 36.252612 0.616501 3.968535 10.031637 6.208186 -6.608001 0.000000 0.000000 0.000000 179.452743 -17.294126 -175.281929 -0.803914 0.095489 -0.030693 12.255281 0.484114 3.886037 0.771768 -5.101480 4.548154 0.000000 0.000000 0.000000 -1.952881 -0.546601 2.744613 1.354066 -1.226554 -0.173173 0.000000 0.000000 0.000000 -2.397967 -1.313350 3.185928 -1.532199 -3.229473 -11.717862 13.305138 -8.246793 -61.881917 -5.685687 -26.001851 -16.708620 0.000000 0.000000 0.000000 -2.151109 0.226497 2.581339 1.465872 5.655393 12.933131 28.631839 20.079033 42.914229 21.647844 43.014137 -8.447602 0.000000 0.000000 0.000000 
-8.734346 86.686729 9.162968 0.000000 0.000000 0.000000 179.735964 -8.820488 -174.827271 2.328179 26.731702 14.494321 34.388916 -5.197785 19.940242 -6.342880 7.086064 -24.682840 0.000000 0.000000 0.000000 -179.967466 -9.220533 -174.635438 -34.987296 -14.653170 -15.784038 37.398776 2.306610 4.144743 6.769550 7.300665 -5.443628 0.000000 0.000000 0.000000 179.424288 -10.662022 -174.896378 -0.785283 0.066470 -0.019227 12.743824 0.364683 4.350316 0.911143 -5.346933 3.894965 0.000000 0.000000 0.000000 -1.850893 -0.693088 2.365977 1.214963 -1.876735 0.082696 0.000000 0.000000 0.000000 -2.251163 -1.523199 2.738061 -1.627675 -3.103274 -11.503820 14.703797 -6.331732 -62.289481 -4.955903 -26.985546 -17.002086 0.000000 0.000000 0.000000 -2.378481 0.013512 2.173033 1.344938 5.950702 13.792200 28.445988 20.789474 42.075881 22.068550 43.796119 -8.847701 0.000000 0.000000 0.000000 
-9.237589 87.456139 5.519554 0.000000 0.000000 0.000000 179.620110 -2.702254 -174.583091 0.577885 26.937571 14.544389 38.148652 -4.740766 19.493988 -5.216431 6.180455 -20.363162 0.000000 0.000000 0.000000 179.913630 -3.071323 -174.476103 -33.480949 -12.983603 -12.942949 37.689237 4.077862 3.869971 5.345781 8.302665 -3.569843 0.000000 0.000000 0.000000 179.356943 -4.087982 -174.617584 -0.779071 0.034163 0.006447 13.277673 0.391789 4.655619 0.924608 -5.405909 3.139619 0.000000 0.000000 0.000000 -1.759571 -0.663760 1.849339 1.114660 -2.465808 0.363141 0.000000 0.000000 0.000000 -2.088795 -1.542284 2.173433 -1.717171 -2.807476 -11.060830 15.948516 -4.065338 -63.007887 -4.044815 -27.343365 -17.183626 0.000000 0.000000 0.000000 -2.667432 -0.011960 1.666041 1.256895 6.060828 14.732252 28.488306 21.465536 40.763477 22.288024 44.460392 -8.875778 0.000000 0.000000 0.000000 
